<svg xmlns="http://www.w3.org/2000/svg" viewBox="0 0 512 512" role="img" aria-label="FixNGo">
  <rect width="512" height="512" rx="112" fill="#1E40AF"/>
  <path fill="#FFFFFF" d="M256 60 L476 243 a19 19 0 0 1 -12 33 h-30 v138 a30 30 0 0 1 -30 30 H108 a30 30 0 0 1 -30 -30 V276 h-30 a19 19 0 0 1 -12 -33 Z"/>
  <g transform="translate(160,215) scale(8)">
    <path fill="#EA580C" d="M22.7 19l-9.1-9.1c.9-2.3.4-5-1.5-6.9-2-2-5-2.4-7.4-1.3L9 6 6 9 1.6 4.7C.4 7.1.9 10.1 2.9 12.1c1.9 1.9 4.6 2.4 6.9 1.5l9.1 9.1c.4.4 1 .4 1.4 0l2.3-2.3c.5-.4.5-1.1.1-1.4z"/>
  </g>
</svg>
